{"title":"GONIDIS STAMATIS OLA LIVE 2005 ( 2 CD + DVD )","uid":7117321,"size":754119759,"categoryP":"audio","categoryS":"music","magnet":"?xt=urn:btih:af982e3926cd676c7f6d0e1c834491bc0b223d0d&amp;dn=GONIDIS+STAMATIS+OLA+LIVE+2005+%28+2+CD+%2B+DVD+%29&amp;tr=udp%3A%2F%2Ftracker.openbittorrent.com%3A80&amp;tr=udp%3A%2F%2Fopen.demonii.com%3A1337&amp;tr=udp%3A%2F%2Ftracker.coppersurfer.tk%3A6969&amp;tr=udp%3A%2F%2Fexodus.desync.com%3A6969","seeders":2,"leechers":0,"uploader":"tigris1968","files":42,"time":1332249345,"description":"GONIDIS STAMATIS OLA LIVE 2005 ( 2 CD + DVD )\n &lt;a href=&quot;\nhttp://bayimg.com/BANnDaaDg&quot; rel=&quot;nofollow&quot; target=&quot;_NEW&quot;&gt;\nhttp://bayimg.com/BANnDaaDg&lt;/a&gt;\n &lt;a href=&quot;\nhttp://bayimg.com/baNNeaAdg&quot; rel=&quot;nofollow&quot; target=&quot;_NEW&quot;&gt;\nhttp://bayimg.com/baNNeaAdg&lt;/a&gt;\n\nMP3 - 320\n\nCOVER - FROND\n\nLIST - YES\n\n                             INFO\nGeneral\nComplete name                    : C:Downloads 2GONIDIS STAMATIS OLA LIVE 2005 ( 2 CD + DVD )DVDGONIDIS STAMATIS OLA LIVE 2005.wmv\nFormat                           : Windows Media\nFile size                        : 479 MiB\nDuration                         : 1h 39mn\nOverall bit rate                 : 670 Kbps\nMaximum Overall bit rate         : 128 Kbps\nEncoded date                     : UTC 1970-01-01 00:00:00.000\n\nVideo\nID                               : 1\nFormat                           : WMV2\nCodec ID                         : WMV2\nCodec ID/Info                    : Windows Media Video 8\nDescription of the codec         : wmv2\nDuration                         : 1h 39mn\nBit rate                         : 506 Kbps\nWidth                            : 720 pixels\nHeight                           : 576 pixels\nDisplay aspect ratio             : 5:4\nFrame rate                       : 24.000 fps\nStandard                         : PAL\nBit depth                        : 8 bits\nBits/(Pixel*Frame)               : 0.051\nStream size                      : 362 MiB (76%)\n\nAudio\nID                               : 2\nFormat                           : WMA\nFormat version                   : Version 2\nCodec ID                         : 161\nCodec ID/Info                    : Windows Media Audio\nDescription of the codec         : Windows Media Audio V8\nDuration                         : 1h 39mn\nBit rate                         : 128 Kbps\nChannel(s)                       : 2 channels\nSampling rate                    : 44.1 KHz\nBit depth                        : 16 bits\nStream size                      : 91.5 MiB (19%)\n\n","torrent":{"xt":"urn:btih:af982e3926cd676c7f6d0e1c834491bc0b223d0d","amp;dn":"GONIDIS+STAMATIS+OLA+LIVE+2005+%28+2+CD+%2B+DVD+%29","amp;tr":["udp%3A%2F%2Ftracker.openbittorrent.com%3A80","udp%3A%2F%2Fopen.demonii.com%3A1337","udp%3A%2F%2Ftracker.coppersurfer.tk%3A6969","udp%3A%2F%2Fexodus.desync.com%3A6969"],"infoHash":"af982e3926cd676c7f6d0e1c834491bc0b223d0d","infoHashBuffer":{"type":"Buffer","data":[175,152,46,57,38,205,103,108,127,109,14,28,131,68,145,188,11,34,61,13]},"announce":[],"urlList":[]}}